HIERARCHY
ROOT ui
{
	 OFFSET 0 0 0
	 CHANNELS 3 XPosition YPosition Z Position
	 EndSite
	 {
	 OFFSET 0 -1 0
	 }
}
ROOT li
{
	 OFFSET 0 0 0
	 CHANNELS 3 XPosition YPosition Z Position
	 EndSite
	 {
	 OFFSET 0 -1 0
	 }
}
ROOT ul
{
	 OFFSET 0 0 0
	 CHANNELS 3 XPosition YPosition Z Position
	 EndSite
	 {
	 OFFSET 0 -1 0
	 }
}
ROOT ll
{
	 OFFSET 0 0 0
	 CHANNELS 3 XPosition YPosition Z Position
	 EndSite
	 {
	 OFFSET 0 -1 0
	 }
}
ROOT tt
{
	 OFFSET 0 0 0
	 CHANNELS 3 XPosition YPosition Z Position
	 EndSite
	 {
	 OFFSET 0 -1 0
	 }
}
ROOT tb
{
	 OFFSET 0 0 0
	 CHANNELS 3 XPosition YPosition Z Position
	 EndSite
	 {
	 OFFSET 0 -1 0
	 }
}
ROOT td
{
	 OFFSET 0 0 0
	 CHANNELS 3 XPosition YPosition Z Position
	 EndSite
	 {
	 OFFSET 0 -1 0
	 }
}
ROOT v
{
	 OFFSET 0 0 0
	 CHANNELS 3 XPosition YPosition Z Position
	 EndSite
	 {
	 OFFSET 0 -1 0
	 }
}
ROOT bn
{
	 OFFSET 0 0 0
	 CHANNELS 3 XPosition YPosition Z Position
	 EndSite
	 {
	 OFFSET 0 -1 0
	 }
}
MOTION
Frames: 24
Frame Time: 0.002
-0.003452470064163208	-3.9338698983192445E-4	0		0.5287688598632813	-2.480199462890625	0		-1.033285888671875	0.01940721321105957	0		-0.6952551879882812	-2.55499267578125	0		1.3822427978515626	-0.7576737060546875	0		3.186583740234375	-0.5000786743164063	0		4.66167626953125	-0.26039306640625	0		5.60521484375	0.09890812683105468	0		0.0032219619750976564	6.00798779296875	0		
0.01789067840576172	0.0032233641147613526	0		0.543971435546875	-2.477535400390625	0		-1.033989990234375	0.019352245330810546	0		-0.7710245361328125	-2.549129638671875	0		1.38149853515625	-0.7578539428710938	0		3.1717041015625	-0.5121768188476562	0		4.65605810546875	-0.2526815795898438	0		5.60860205078125	0.10545841979980469	0		0.018977012634277344	6.01967822265625	0		
-0.004888260841369629	-6.132389903068542E-4	0		0.5250409545898438	-2.48344873046875	0		-1.0347197265625	0.019293130874633788	0		-0.696953369140625	-2.5551416015625	0		1.380729248046875	-0.758035888671875	0		3.165035400390625	-0.5053751525878907	0		4.6482275390625	-0.2599417419433594	0		5.6037890625	0.09811222839355468	0		0.01853985023498535	6.01856591796875	0		
-0.005634016990661621	-7.257810235023498E-4	0		0.5302606811523437	-2.476663330078125	0		-1.0985223388671874	0.015024180412292481	0		-0.768693359375	-2.54432763671875	0		1.360998046875	-0.7539778442382813	0		3.1909609375	-0.5299813232421875	0		4.65644287109375	-0.26239617919921876	0		5.626109375	0.10243412780761718	0		0.019064863204956053	6.016439453125	0		
0.03173833656311035	0.008681791305541992	0		0.53143115234375	-2.473825927734375	0		-1.0321641845703124	0.023117000579833985	0		-0.6926077880859375	-2.548375732421875	0		1.3852476806640626	-0.7514697875976563	0		3.1746787109375	-0.49104443359375	0		4.66584326171875	-0.24985435485839844	0		5.6202626953125	0.0941214599609375	0		0.01859672546386719	6.01632666015625	0		
-0.0071323528289794925	-9.473040103912353E-4	0		0.516613037109375	-2.4707822265625	0		-1.03291064453125	0.02305284309387207	0		-0.7724493408203125	-2.546453857421875	0		1.38141650390625	-0.7556029663085938	0		3.13970947265625	-0.5068633422851563	0		4.65303515625	-0.25401925659179686	0		5.60974853515625	0.11188706207275391	0		0.017154666900634767	6.019228515625	0		
-0.007869769096374511	-0.0010543099641799926	0		0.5417072143554688	-2.4762412109375	0		-0.9607037353515625	0.018060766220092773	0		-0.7004002685546875	-2.55545654296875	0		1.380647705078125	-0.7557677612304687	0		3.171935791015625	-0.5085206909179687	0		4.65718505859375	-0.26238302612304687	0		5.60082568359375	0.09664934539794921	0		0.016654945373535155	6.0181201171875	0		
-0.008591165542602539	-0.0011583110094070435	0		0.5228279418945313	-2.481136474609375	0		-1.078402099609375	0.02048543930053711	0		-0.7761504516601563	-2.549577880859375	0		1.35486083984375	-0.7586063232421875	0		3.17119482421875	-0.5087474975585937	0		4.64446728515625	-0.2615142517089844	0		5.60396728515625	0.08527862548828125	0		0.01616600227355957	6.018015625	0		
0.01770818328857422	-0.0016041640043258666	0		0.551038818359375	-2.481626708984375	0		-1.0350650634765626	0.022860029220581054	0		-0.7728759765625	-2.54470263671875	0		1.3602373046875	-0.7508328247070313	0		3.174656982421875	-0.4950135498046875	0		4.658822265625	-0.25697265625	0		5.60350244140625	0.10297681427001953	0		0.015681777954101563	6.0179140625	0		
-0.0028686449527740476	0.0055542030334472655	0		0.5253431396484375	-2.47742138671875	0		-1.035732421875	0.02279688262939453	0		-0.7706016845703125	-2.54281298828125	0		1.381530029296875	-0.7522559814453125	0		3.140872802734375	-0.5027901916503906	0		4.6471591796875	-0.2560804138183594	0		5.61182373046875	0.10158202362060546	0		0.015209737777709962	6.01781640625	0		
0.016408206939697266	-0.001794455051422119	0		0.5475460205078125	-2.484824462890625	0		-0.9634209594726563	0.01779761505126953	0		-0.7384015502929687	-2.550305908203125	0		1.3558394775390625	-0.75506787109375	0		3.202349365234375	-0.49377328491210937	0		4.65750634765625	-0.25745199584960937	0		5.6070927734375	0.09337510681152343	0		0.014756723403930664	6.0177236328125	0		
-0.011180226325988769	-0.0015347410440444947	0		0.5089945373535156	-2.47643798828125	0		-1.041004638671875	0.018727581024169923	0		-0.7041282348632812	-2.55582373046875	0		1.368253173828125	-0.7533594970703125	0		3.149711181640625	-0.49627731323242186	0		4.64893505859375	-0.255562255859375	0		5.60162109375	0.10220004272460938	0		-0.001811951994895935	6.0068427734375	0		
0.01527142333984375	-0.0019652520418167113	0		0.5462816162109375	-2.4850224609375	0		-1.04155029296875	0.018670541763305664	0		-0.7796659545898438	-2.549921875	0		1.3546640625	-0.7553074951171875	0		3.162074462890625	-0.5026038818359375	0		4.653279296875	-0.26382208251953126	0		5.6100634765625	0.10086478424072266	0		0.013929230690002441	6.01755322265625	0		
-0.00513533878326416	0.005215335845947266	0		0.5228203735351562	-2.47781494140625	0		-1.066111328125	0.013927126884460449	0		-0.7262643432617187	-2.55367919921875	0		1.357199951171875	-0.751453369140625	0		3.153423095703125	-0.513646240234375	0		4.6538388671875	-0.25901495361328125	0		5.6144501953125	0.09160027313232422	0		0.01552412509918213	6.0144501953125	0		
0.021412519454956053	0.004794888019561768	0		0.5243598022460938	-2.47492236328125	0		-1.0384468994140625	0.022514070510864258	0		-0.7736317138671875	-2.54312841796875	0		1.3628250732421876	-0.7446296997070313	0		3.16232470703125	-0.48589886474609373	0		4.66129248046875	-0.26628152465820315	0		5.60833935546875	0.11749307250976562	0		0.014206710815429688	6.0153916015625	0		
-0.01307616424560547	-0.0018297250270843505	0		0.50995458984375	-2.471816162109375	0		-1.038847412109375	0.022467206954956055	0		-0.7042007446289062	-2.55308642578125	0		1.36933251953125	-0.7508098754882813	0		3.140748291015625	-0.4987477722167969	0		4.6549912109375	-0.2583534851074219	0		5.59973388671875	0.10143203735351562	0		-0.0022145729064941408	6.0055341796875	0		
0.013568608283996583	-0.0022406320571899414	0		0.5354944458007812	-2.47722216796875	0		-1.0432515869140624	0.018475582122802734	0		-0.7815626831054687	-2.55013671875	0		1.346982177734375	-0.749607421875	0		3.163398193359375	-0.4981580810546875	0		4.651556640625	-0.26445037841796876	0		5.59938232421875	0.10128037261962891	0		0.012684477806091308	6.01727783203125	0		
-0.013735869407653808	-0.0019469319581985475	0		0.5170877075195313	-2.482052734375	0		-1.0435579833984374	0.018434108734130858	0		-0.7069783325195312	-2.556156005859375	0		1.3525859375	-0.7557616577148437	0		3.173057373046875	-0.5003914184570313	0		4.65124560546875	-0.2645759582519531	0		5.594986328125	0.094193359375	0		0.01246661376953125	6.017220703125	0		
0.012999387741088867	-0.0023513989448547363	0		0.5208433837890625	-2.47816552734375	0		-1.0787652587890626	0.022849559783935547	0		-0.7781392822265625	-2.54527734375	0		1.3553651123046875	-0.751872802734375	0		3.16615283203125	-0.4723991394042969	0		4.6540576171875	-0.25873187255859376	0		5.61268505859375	0.09083037567138671	0		0.013259430885314942	6.015154296875	0		
-0.011179598808288574	9.104800224304199E-4	0		0.5205923461914063	-2.47822216796875	0		-1.03998828125	0.022305223464965822	0		-0.7034625854492188	-2.551293701171875	0		1.3532529296875	-0.7429146118164063	0		3.13957763671875	-0.49914813232421873	0		4.657912109375	-0.2528928070068359	0		5.602701171875	0.10883867645263672	0		0.013114642143249512	6.01510400390625	0		
0.01259965419769287	-0.002448242902755737	0		0.518357666015625	-2.48024853515625	0		-1.0401676025390625	0.022271072387695313	0		-0.7806266479492188	-2.547328857421875	0		1.37388037109375	-0.7572493896484375	0		3.176558349609375	-0.4867147216796875	0		4.638587890625	-0.26374554443359377	0		5.5984189453125	0.10077910614013671	0		0.013005839347839356	6.01505712890625	0		
-0.019486713409423827	0.0019265029430389404	0		0.5342261352539063	-2.47750537109375	0		-1.0443604736328125	0.018293272018432616	0		-0.718802001953125	-2.548170654296875	0		1.367809326171875	-0.751229248046875	0		3.150322509765625	-0.49345309448242186	0		4.6504296875	-0.26499658203125	0		5.59827880859375	0.10067362976074219	0		-0.01833849906921387	5.9944208984375	0		
0.012353890419006348	-0.002527672052383423	0		0.5160303955078125	-2.48231298828125	0		-1.0794095458984374	0.022724292755126954	0		-0.7809295043945312	-2.547390380859375	0		1.367696533203125	-0.7512815551757812	0		3.16030322265625	-0.48665628051757814	0		4.6424140625	-0.25798147583007813	0		5.60716162109375	0.09945698547363281	0		0.012895060539245605	6.01497802734375	0		
0.019375436782836913	0.0043488631248474125	0		0.5199856567382812	-2.478402587890625	0		-1.0286004638671875	0.013039456367492677	0		-0.7660803833007812	-2.551608642578125	0		1.360697998046875	-0.7452369995117187	0		3.181004638671875	-0.5039953002929688	0		4.64723681640625	-0.26612860107421876	0		5.612197265625	0.1072978515625	0		-0.004054159164428711	6.01916796875	0		
